<mxfile host="app.diagrams.net" modified="2024-04-30T02:17:39.352Z" agent="Mozilla/5.0 (Macintosh; Intel Mac OS X 10_15_7) AppleWebKit/537.36 (KHTML, like Gecko) Chrome/124.0.0.0 Safari/537.36" etag="6e3uXVHMH757oH8gOcME" version="24.1.0" type="github">
  <diagram id="07fea595-8f29-1299-0266-81d95cde20df" name="Page-1">
    <mxGraphModel dx="1304" dy="723" grid="1" gridSize="10" guides="1" tooltips="1" connect="1" arrows="1" fold="1" page="1" pageScale="1" pageWidth="1169" pageHeight="827" background="#ffffff" math="0" shadow="0">
      <root>
        <mxCell id="0" />
        <mxCell id="1" parent="0" />
        <mxCell id="np8tpw6NEgNjQaXLkoZM-258" value="" style="rounded=1;whiteSpace=wrap;html=1;fillColor=none;dashed=1;" vertex="1" parent="1">
          <mxGeometry x="80" y="480" width="640" height="280" as="geometry" />
        </mxCell>
        <mxCell id="np8tpw6NEgNjQaXLkoZM-257" value="" style="rounded=1;whiteSpace=wrap;html=1;fillColor=none;dashed=1;" vertex="1" parent="1">
          <mxGeometry x="80" y="160" width="800" height="280" as="geometry" />
        </mxCell>
        <mxCell id="202" value="" style="edgeStyle=segmentEdgeStyle;strokeColor=#2F5B7C;strokeWidth=3;html=1;endArrow=block;endFill=1;" parent="1" target="184" edge="1">
          <mxGeometry x="164.5" y="178.5" width="100" height="100" as="geometry">
            <mxPoint x="164.5" y="178.5454545454545" as="sourcePoint" />
            <mxPoint x="324.5" y="148.5" as="targetPoint" />
          </mxGeometry>
        </mxCell>
        <mxCell id="203" value="" style="edgeStyle=segmentEdgeStyle;strokeColor=#12AAB5;strokeWidth=3;html=1;endArrow=block;endFill=1;" parent="1" source="185" edge="1">
          <mxGeometry x="164.5" y="433.5" width="100" height="100" as="geometry">
            <mxPoint x="274.5" y="323.5" as="sourcePoint" />
            <mxPoint x="164.5" y="493.5454545454545" as="targetPoint" />
            <Array as="points">
              <mxPoint x="234.5" y="493.5" />
            </Array>
          </mxGeometry>
        </mxCell>
        <mxCell id="204" value="" style="edgeStyle=segmentEdgeStyle;strokeColor=#2F5B7C;strokeWidth=3;html=1;endArrow=block;endFill=1;" parent="1" target="188" edge="1">
          <mxGeometry x="164.5" y="178.5" width="100" height="100" as="geometry">
            <mxPoint x="164.5" y="178.5" as="sourcePoint" />
            <mxPoint x="274.5" y="263.5" as="targetPoint" />
          </mxGeometry>
        </mxCell>
        <mxCell id="205" value="" style="edgeStyle=segmentEdgeStyle;strokeColor=#12AAB5;strokeWidth=3;html=1;endArrow=block;endFill=1;" parent="1" target="190" edge="1">
          <mxGeometry x="234.5" y="433.5" width="100" height="100" as="geometry">
            <mxPoint x="234.5454545454545" y="433.5" as="sourcePoint" />
            <mxPoint x="484.5" y="718.5" as="targetPoint" />
            <Array as="points">
              <mxPoint x="234.5" y="528.5" />
            </Array>
          </mxGeometry>
        </mxCell>
        <mxCell id="206" value="" style="edgeStyle=elbowEdgeStyle;elbow=vertical;strokeColor=#12AAB5;strokeWidth=3;html=1;endArrow=block;endFill=1;" parent="1" target="178" edge="1">
          <mxGeometry x="484.5" y="623.5" width="100" height="100" as="geometry">
            <mxPoint x="484.5" y="653.3636363636363" as="sourcePoint" />
            <mxPoint x="644.5" y="518.5" as="targetPoint" />
          </mxGeometry>
        </mxCell>
        <mxCell id="207" value="" style="edgeStyle=segmentEdgeStyle;strokeColor=#2F5B7C;strokeWidth=3;html=1;endArrow=block;endFill=1;" parent="1" target="189" edge="1">
          <mxGeometry x="324.5" y="283.5" width="100" height="100" as="geometry">
            <mxPoint x="324.5" y="283.5454545454545" as="sourcePoint" />
            <mxPoint x="554.5" y="198.5" as="targetPoint" />
            <Array as="points" />
          </mxGeometry>
        </mxCell>
        <mxCell id="208" value="" style="edgeStyle=segmentEdgeStyle;strokeColor=#12AAB5;strokeWidth=3;html=1;endArrow=block;endFill=1;" parent="1" target="194" edge="1">
          <mxGeometry x="484.5" y="178.5" width="100" height="100" as="geometry">
            <mxPoint x="484.5" y="178.5454545454545" as="sourcePoint" />
            <mxPoint x="544.5" y="148.5" as="targetPoint" />
          </mxGeometry>
        </mxCell>
        <mxCell id="209" value="" style="edgeStyle=none;strokeColor=#2F5B7C;strokeWidth=3;html=1;endArrow=block;endFill=1;" parent="1" target="181" edge="1">
          <mxGeometry x="644.5" y="278.5" width="100" height="100" as="geometry">
            <mxPoint x="644.5000000000002" y="278.5" as="sourcePoint" />
            <mxPoint x="784.5" y="358.5" as="targetPoint" />
          </mxGeometry>
        </mxCell>
        <mxCell id="210" value="" style="edgeStyle=segmentEdgeStyle;strokeColor=#12AAB5;strokeWidth=3;html=1;endArrow=block;endFill=1;" parent="1" target="195" edge="1">
          <mxGeometry x="404.5" y="393.5" width="100" height="100" as="geometry">
            <mxPoint x="404.5454545454545" y="393.5" as="sourcePoint" />
            <mxPoint x="624.5" y="388.5" as="targetPoint" />
            <Array as="points">
              <mxPoint x="404.5" y="438.5" />
            </Array>
          </mxGeometry>
        </mxCell>
        <mxCell id="211" value="" style="edgeStyle=segmentEdgeStyle;strokeColor=#2F5B7C;strokeWidth=3;html=1;endArrow=block;endFill=1;" parent="1" target="181" edge="1">
          <mxGeometry x="644.5" y="308.5" width="100" height="100" as="geometry">
            <mxPoint x="644.5000000000002" y="433.5454545454545" as="sourcePoint" />
            <mxPoint x="744.5" y="338.5" as="targetPoint" />
          </mxGeometry>
        </mxCell>
        <mxCell id="212" value="" style="edgeStyle=segmentEdgeStyle;strokeColor=#2F5B7C;strokeWidth=3;html=1;endArrow=block;endFill=1;" parent="1" target="182" edge="1">
          <mxGeometry x="644.5" y="433.5" width="100" height="100" as="geometry">
            <mxPoint x="644.5000000000002" y="433.5454545454545" as="sourcePoint" />
            <mxPoint x="614.5" y="488.5" as="targetPoint" />
          </mxGeometry>
        </mxCell>
        <mxCell id="213" value="" style="edgeStyle=segmentEdgeStyle;strokeColor=#2F5B7C;strokeWidth=3;html=1;endArrow=block;endFill=1;" parent="1" target="177" edge="1">
          <mxGeometry x="744.5" y="178.5" width="100" height="100" as="geometry">
            <mxPoint x="744.5454545454545" y="248.5" as="sourcePoint" />
            <mxPoint x="964.5" y="278.5" as="targetPoint" />
            <Array as="points">
              <mxPoint x="744.5" y="178.5" />
            </Array>
          </mxGeometry>
        </mxCell>
        <mxCell id="214" value="" style="edgeStyle=segmentEdgeStyle;strokeColor=#2F5B7C;strokeWidth=3;html=1;endArrow=block;endFill=1;" parent="1" target="179" edge="1">
          <mxGeometry x="804.5" y="278.5" width="100" height="100" as="geometry">
            <mxPoint x="804.5" y="278.5454545454545" as="sourcePoint" />
            <mxPoint x="954.5" y="288.5" as="targetPoint" />
          </mxGeometry>
        </mxCell>
        <mxCell id="215" value="" style="edgeStyle=segmentEdgeStyle;strokeColor=#2F5B7C;strokeWidth=3;html=1;endArrow=block;endFill=1;" parent="1" target="178" edge="1">
          <mxGeometry x="804.5" y="538.5" width="100" height="100" as="geometry">
            <mxPoint x="804.5" y="538.5454545454545" as="sourcePoint" />
            <mxPoint x="984.5" y="478.5" as="targetPoint" />
          </mxGeometry>
        </mxCell>
        <mxCell id="216" value="" style="edgeStyle=segmentEdgeStyle;strokeColor=#2F5B7C;strokeWidth=3;html=1;endArrow=block;endFill=1;" parent="1" target="199" edge="1">
          <mxGeometry x="964.5" y="423.5" width="100" height="100" as="geometry">
            <mxPoint x="964.5" y="423.5454545454545" as="sourcePoint" />
            <mxPoint x="1194.5" y="398.5" as="targetPoint" />
          </mxGeometry>
        </mxCell>
        <mxCell id="217" value="" style="edgeStyle=segmentEdgeStyle;strokeColor=#12AAB5;strokeWidth=3;html=1;endArrow=block;endFill=1;" parent="1" target="197" edge="1">
          <mxGeometry x="964.5" y="178.5" width="100" height="100" as="geometry">
            <mxPoint x="964.5" y="178.5454545454545" as="sourcePoint" />
            <mxPoint x="954.5" y="248.5" as="targetPoint" />
          </mxGeometry>
        </mxCell>
        <mxCell id="np8tpw6NEgNjQaXLkoZM-235" style="edgeStyle=orthogonalEdgeStyle;rounded=0;orthogonalLoop=1;jettySize=auto;html=1;exitX=1;exitY=0.25;exitDx=0;exitDy=0;entryX=0;entryY=0.5;entryDx=0;entryDy=0;" edge="1" parent="1" source="np8tpw6NEgNjQaXLkoZM-217" target="np8tpw6NEgNjQaXLkoZM-234">
          <mxGeometry relative="1" as="geometry" />
        </mxCell>
        <mxCell id="np8tpw6NEgNjQaXLkoZM-242" style="edgeStyle=orthogonalEdgeStyle;rounded=0;orthogonalLoop=1;jettySize=auto;html=1;exitX=1;exitY=0.75;exitDx=0;exitDy=0;entryX=0;entryY=0.5;entryDx=0;entryDy=0;" edge="1" parent="1" source="np8tpw6NEgNjQaXLkoZM-217" target="np8tpw6NEgNjQaXLkoZM-241">
          <mxGeometry relative="1" as="geometry" />
        </mxCell>
        <mxCell id="np8tpw6NEgNjQaXLkoZM-217" value="收入" style="whiteSpace=wrap;fillColor=#2f5b7c;strokeColor=none;shadow=0;fontColor=#FFFFFF;fontFamily=Helvetica;fontStyle=0;html=1;fontSize=12;spacing=6;verticalAlign=middle;" vertex="1" parent="1">
          <mxGeometry x="600" y="280" width="70" height="40" as="geometry" />
        </mxCell>
        <mxCell id="np8tpw6NEgNjQaXLkoZM-240" style="edgeStyle=orthogonalEdgeStyle;rounded=0;orthogonalLoop=1;jettySize=auto;html=1;exitX=1;exitY=0.5;exitDx=0;exitDy=0;entryX=0;entryY=0.5;entryDx=0;entryDy=0;" edge="1" parent="1" source="np8tpw6NEgNjQaXLkoZM-220" target="np8tpw6NEgNjQaXLkoZM-232">
          <mxGeometry relative="1" as="geometry" />
        </mxCell>
        <mxCell id="np8tpw6NEgNjQaXLkoZM-220" value="支出" style="whiteSpace=wrap;fillColor=#2f5b7c;strokeColor=none;shadow=0;fontColor=#FFFFFF;fontFamily=Helvetica;fontStyle=0;html=1;fontSize=12;spacing=6;verticalAlign=middle;" vertex="1" parent="1">
          <mxGeometry x="440" y="600" width="70" height="40" as="geometry" />
        </mxCell>
        <mxCell id="np8tpw6NEgNjQaXLkoZM-236" style="edgeStyle=orthogonalEdgeStyle;rounded=0;orthogonalLoop=1;jettySize=auto;html=1;exitX=1;exitY=0.5;exitDx=0;exitDy=0;" edge="1" parent="1" source="np8tpw6NEgNjQaXLkoZM-222" target="np8tpw6NEgNjQaXLkoZM-223">
          <mxGeometry relative="1" as="geometry" />
        </mxCell>
        <mxCell id="np8tpw6NEgNjQaXLkoZM-222" value="客户" style="whiteSpace=wrap;fillColor=#2f5b7c;strokeColor=none;shadow=0;fontColor=#FFFFFF;fontFamily=Helvetica;fontStyle=0;html=1;fontSize=12;spacing=6;verticalAlign=middle;" vertex="1" parent="1">
          <mxGeometry x="120" y="280" width="70" height="40" as="geometry" />
        </mxCell>
        <mxCell id="np8tpw6NEgNjQaXLkoZM-237" style="edgeStyle=orthogonalEdgeStyle;rounded=0;orthogonalLoop=1;jettySize=auto;html=1;exitX=1;exitY=0.5;exitDx=0;exitDy=0;" edge="1" parent="1" source="np8tpw6NEgNjQaXLkoZM-223" target="np8tpw6NEgNjQaXLkoZM-224">
          <mxGeometry relative="1" as="geometry" />
        </mxCell>
        <mxCell id="np8tpw6NEgNjQaXLkoZM-223" value="合同&lt;div&gt;（应收）&lt;/div&gt;" style="whiteSpace=wrap;fillColor=#2f5b7c;strokeColor=none;shadow=0;fontColor=#FFFFFF;fontFamily=Helvetica;fontStyle=0;html=1;fontSize=12;spacing=6;verticalAlign=middle;" vertex="1" parent="1">
          <mxGeometry x="280" y="280" width="70" height="40" as="geometry" />
        </mxCell>
        <mxCell id="np8tpw6NEgNjQaXLkoZM-238" style="edgeStyle=orthogonalEdgeStyle;rounded=0;orthogonalLoop=1;jettySize=auto;html=1;exitX=1;exitY=0.5;exitDx=0;exitDy=0;entryX=0;entryY=0.5;entryDx=0;entryDy=0;" edge="1" parent="1" source="np8tpw6NEgNjQaXLkoZM-224" target="np8tpw6NEgNjQaXLkoZM-217">
          <mxGeometry relative="1" as="geometry" />
        </mxCell>
        <mxCell id="np8tpw6NEgNjQaXLkoZM-224" value="发票" style="whiteSpace=wrap;fillColor=#2f5b7c;strokeColor=none;shadow=0;fontColor=#FFFFFF;fontFamily=Helvetica;fontStyle=0;html=1;fontSize=12;spacing=6;verticalAlign=middle;" vertex="1" parent="1">
          <mxGeometry x="440" y="280" width="70" height="40" as="geometry" />
        </mxCell>
        <mxCell id="np8tpw6NEgNjQaXLkoZM-239" style="edgeStyle=orthogonalEdgeStyle;rounded=0;orthogonalLoop=1;jettySize=auto;html=1;exitX=1;exitY=0.5;exitDx=0;exitDy=0;entryX=0;entryY=0.5;entryDx=0;entryDy=0;" edge="1" parent="1" source="np8tpw6NEgNjQaXLkoZM-230" target="np8tpw6NEgNjQaXLkoZM-220">
          <mxGeometry relative="1" as="geometry" />
        </mxCell>
        <mxCell id="np8tpw6NEgNjQaXLkoZM-230" value="应付" style="whiteSpace=wrap;fillColor=#2f5b7c;strokeColor=none;shadow=0;fontColor=#FFFFFF;fontFamily=Helvetica;fontStyle=0;html=1;fontSize=12;spacing=6;verticalAlign=middle;" vertex="1" parent="1">
          <mxGeometry x="280" y="600" width="70" height="40" as="geometry" />
        </mxCell>
        <mxCell id="np8tpw6NEgNjQaXLkoZM-232" value="供应商" style="whiteSpace=wrap;fillColor=#2f5b7c;strokeColor=none;shadow=0;fontColor=#FFFFFF;fontFamily=Helvetica;fontStyle=0;html=1;fontSize=12;spacing=6;verticalAlign=middle;" vertex="1" parent="1">
          <mxGeometry x="600" y="600" width="70" height="40" as="geometry" />
        </mxCell>
        <mxCell id="np8tpw6NEgNjQaXLkoZM-234" value="账户" style="whiteSpace=wrap;fillColor=#2f5b7c;strokeColor=none;shadow=0;fontColor=#FFFFFF;fontFamily=Helvetica;fontStyle=0;html=1;fontSize=12;spacing=6;verticalAlign=middle;" vertex="1" parent="1">
          <mxGeometry x="760" y="200" width="70" height="40" as="geometry" />
        </mxCell>
        <mxCell id="np8tpw6NEgNjQaXLkoZM-245" style="edgeStyle=orthogonalEdgeStyle;rounded=0;orthogonalLoop=1;jettySize=auto;html=1;exitX=0.5;exitY=0;exitDx=0;exitDy=0;entryX=0.5;entryY=1;entryDx=0;entryDy=0;startArrow=classic;startFill=1;" edge="1" parent="1" source="np8tpw6NEgNjQaXLkoZM-241" target="np8tpw6NEgNjQaXLkoZM-244">
          <mxGeometry relative="1" as="geometry" />
        </mxCell>
        <mxCell id="np8tpw6NEgNjQaXLkoZM-241" value="个体户" style="whiteSpace=wrap;fillColor=#2f5b7c;strokeColor=none;shadow=0;fontColor=#FFFFFF;fontFamily=Helvetica;fontStyle=0;html=1;fontSize=12;spacing=6;verticalAlign=middle;" vertex="1" parent="1">
          <mxGeometry x="760" y="360" width="70" height="40" as="geometry" />
        </mxCell>
        <mxCell id="np8tpw6NEgNjQaXLkoZM-246" style="edgeStyle=orthogonalEdgeStyle;rounded=0;orthogonalLoop=1;jettySize=auto;html=1;exitX=0.5;exitY=0;exitDx=0;exitDy=0;entryX=0.5;entryY=1;entryDx=0;entryDy=0;" edge="1" parent="1" source="np8tpw6NEgNjQaXLkoZM-244" target="np8tpw6NEgNjQaXLkoZM-234">
          <mxGeometry relative="1" as="geometry" />
        </mxCell>
        <mxCell id="np8tpw6NEgNjQaXLkoZM-247" value="" style="edgeStyle=orthogonalEdgeStyle;rounded=0;orthogonalLoop=1;jettySize=auto;html=1;startArrow=classic;startFill=1;" edge="1" parent="1" source="np8tpw6NEgNjQaXLkoZM-244" target="np8tpw6NEgNjQaXLkoZM-234">
          <mxGeometry relative="1" as="geometry" />
        </mxCell>
        <mxCell id="np8tpw6NEgNjQaXLkoZM-244" value="内部流转" style="whiteSpace=wrap;fillColor=#2f5b7c;strokeColor=none;shadow=0;fontColor=#FFFFFF;fontFamily=Helvetica;fontStyle=0;html=1;fontSize=12;spacing=6;verticalAlign=middle;" vertex="1" parent="1">
          <mxGeometry x="760" y="280" width="70" height="40" as="geometry" />
        </mxCell>
        <mxCell id="np8tpw6NEgNjQaXLkoZM-255" style="edgeStyle=orthogonalEdgeStyle;rounded=0;orthogonalLoop=1;jettySize=auto;html=1;exitX=1;exitY=0.5;exitDx=0;exitDy=0;entryX=0;entryY=0.25;entryDx=0;entryDy=0;" edge="1" parent="1" source="np8tpw6NEgNjQaXLkoZM-249" target="np8tpw6NEgNjQaXLkoZM-230">
          <mxGeometry relative="1" as="geometry" />
        </mxCell>
        <mxCell id="np8tpw6NEgNjQaXLkoZM-249" value="账户" style="whiteSpace=wrap;fillColor=#2f5b7c;strokeColor=none;shadow=0;fontColor=#FFFFFF;fontFamily=Helvetica;fontStyle=0;html=1;fontSize=12;spacing=6;verticalAlign=middle;" vertex="1" parent="1">
          <mxGeometry x="120" y="520" width="70" height="40" as="geometry" />
        </mxCell>
        <mxCell id="np8tpw6NEgNjQaXLkoZM-256" style="edgeStyle=orthogonalEdgeStyle;rounded=0;orthogonalLoop=1;jettySize=auto;html=1;exitX=1;exitY=0.5;exitDx=0;exitDy=0;entryX=0;entryY=0.75;entryDx=0;entryDy=0;" edge="1" parent="1" source="np8tpw6NEgNjQaXLkoZM-251" target="np8tpw6NEgNjQaXLkoZM-230">
          <mxGeometry relative="1" as="geometry" />
        </mxCell>
        <mxCell id="np8tpw6NEgNjQaXLkoZM-251" value="个体户" style="whiteSpace=wrap;fillColor=#2f5b7c;strokeColor=none;shadow=0;fontColor=#FFFFFF;fontFamily=Helvetica;fontStyle=0;html=1;fontSize=12;spacing=6;verticalAlign=middle;" vertex="1" parent="1">
          <mxGeometry x="120" y="680" width="70" height="40" as="geometry" />
        </mxCell>
        <mxCell id="np8tpw6NEgNjQaXLkoZM-259" value="收入" style="text;html=1;align=center;verticalAlign=middle;whiteSpace=wrap;rounded=0;fontStyle=1;fontSize=24;" vertex="1" parent="1">
          <mxGeometry x="370" y="170" width="60" height="30" as="geometry" />
        </mxCell>
        <mxCell id="np8tpw6NEgNjQaXLkoZM-260" value="支出" style="text;html=1;align=center;verticalAlign=middle;whiteSpace=wrap;rounded=0;fontStyle=1;fontSize=24;" vertex="1" parent="1">
          <mxGeometry x="370" y="490" width="60" height="30" as="geometry" />
        </mxCell>
      </root>
    </mxGraphModel>
  </diagram>
</mxfile>
